<?xml version="1.0" encoding="UTF-8"?>
<svg width="120px" height="120px" viewBox="0 0 120 120" version="1.1" xmlns="http://www.w3.org/2000/svg" xmlns:xlink="http://www.w3.org/1999/xlink">
    <!-- Generator: Sketch 64 (93537) - https://sketch.com -->
    <title>icons/120x120/ico_firm_user</title>
    <desc>Created with Sketch.</desc>
    <g id="icons/120x120/ico_firm_user" stroke="none" stroke-width="1" fill="none" fill-rule="evenodd">
        <rect id="Bounds" fill-opacity="0" fill="#D8D8D8" x="0" y="0" width="120" height="120"></rect>
        <g id="Group" transform="translate(3.000000, 6.000000)">
            <path d="M99.2968421,41.0724638 C99.2968421,50.3672041 99.2968421,63.2561745 99.2968421,81.8456552 C99.2968421,84.0626656 97.5013534,85.8590217 95.2854135,85.8590217 L4.00962406,85.8590217 C1.79548872,85.8590217 4.47267954e-13,84.0626656 4.47267954e-13,81.8456552 L4.47267954e-13,15.4472784 C4.47267954e-13,13.230268 1.79548872,11.4339119 4.00962406,11.4339119 C34.5747836,11.4339119 59.6039165,11.4339119 74.8864962,11.4339119" id="Shape" stroke="#007EAE" stroke-width="2" stroke-linecap="round"></path>
            <line x1="47.7317548" y1="39.4400966" x2="70.2964028" y2="39.4400966" id="Stroke-8" stroke="#DFE7EA" stroke-width="2" stroke-linecap="round"></line>
            <line x1="47.7317548" y1="49.5143144" x2="82.9279818" y2="49.5143144" id="Stroke-10" stroke="#DFE7EA" stroke-width="2" stroke-linecap="round"></line>
            <line x1="47.7363857" y1="59.5885322" x2="67.8667705" y2="59.5885322" id="Stroke-12" stroke="#DFE7EA" stroke-width="2" stroke-linecap="round"></line>
            <path d="M9.62333835,67.1507502 C9.62333835,60.9511137 13.3866972,55.6307914 18.7513996,53.3591175" id="Stroke-11" stroke="#007EAE" stroke-width="2" stroke-linecap="round"></path>
            <path d="M38.0331349,67.1507502 C38.0331349,60.9511137 34.269776,55.6307914 28.9050737,53.3591175" id="Stroke-13" stroke="#007EAE" stroke-width="2" stroke-linecap="round"></path>
            <path d="M24.0377155,54.3417141 L24.0377155,54.3417141 C18.3019209,54.3417141 13.609487,49.6421634 13.609487,43.8990162 L13.609487,41.4590203 C13.609487,35.7145265 18.3019209,31.0149758 24.0377155,31.0149758 C29.7735101,31.0149758 34.465944,35.7145265 34.465944,41.4590203 L34.465944,43.8990162 C34.465944,49.6421634 29.7735101,54.3417141 24.0377155,54.3417141 Z" id="Stroke-15" stroke="#007EAE" stroke-width="2" stroke-linecap="round"></path>
            <path d="M26.3984534,48.4070838 C25.7409749,48.9430211 24.9046729,49.2648528 23.9957659,49.2648528 C23.1258505,49.2648528 22.3218174,48.968606 21.6764397,48.473066" id="Stroke-29" stroke="#007EAE" stroke-width="2" stroke-linecap="round"></path>
            <path d="M113.920389,20.5795148 C113.920389,31.9450953 104.711829,41.1590296 93.3508109,41.1590296 C81.9907183,41.1590296 72.7812331,31.9450953 72.7812331,20.5795148 C72.7812331,9.21393428 81.9907183,-2.58163861e-14 93.3508109,-2.58163861e-14 C104.711829,-2.58163861e-14 113.920389,9.21393428 113.920389,20.5795148 Z" id="Stroke-8" stroke="#F4C00F" stroke-width="2" stroke-linecap="round"></path>
            <polyline id="Stroke-10" stroke="#F4C00F" stroke-width="2" stroke-linecap="round" stroke-linejoin="round" points="86.2490409 20.7817718 91.0130665 25.4336834 100.452581 15.7253462"></polyline>
            <g id="05-Iconos/22-Otros/sombra_ilustraciones" transform="translate(29.706045, 105.424339)">
                <g id="il_shadow">
                    <path d="M0.562018665,1.56011219 C0.562018665,2.28311025 12.245006,2.86911165 26.6566576,2.86911165 C41.0690617,2.86911165 52.7520491,2.28311025 52.7520491,1.56011219 C52.7520491,0.837114125 41.0690617,0.25111272 26.6566576,0.25111272 C12.245006,0.25111272 0.562018665,0.837114125 0.562018665,1.56011219" id="Fill-1" fill-opacity="0.5" fill="#DFE7EA"></path>
                    <path d="M0.445527428,1.52159533 C0.445527428,2.04304333 8.86555613,2.4647922 19.2534439,2.4647922 C29.6405791,2.4647922 38.0613604,2.04304333 38.0613604,1.52159533 C38.0613604,1.00014732 29.6405791,0.578398449 19.2534439,0.578398449 C8.86555613,0.578398449 0.445527428,1.00014732 0.445527428,1.52159533" id="Fill-4" fill="#DDE8EB"></path>
                </g>
            </g>
        </g>
    </g>
</svg>