<?xml version="1.0" encoding="UTF-8" standalone="no"?>
<svg width="72px" height="72px" viewBox="0 0 72 72" version="1.1" xmlns="http://www.w3.org/2000/svg" xmlns:xlink="http://www.w3.org/1999/xlink">
    <!-- Generator: Sketch 43.2 (39069) - http://www.bohemiancoding.com/sketch -->
    <title>logo_caixabanksign</title>
    <desc>Created with Sketch.</desc>
    <defs></defs>
    <g id="Symbols" stroke="none" stroke-width="1" fill="none" fill-rule="evenodd">
        <g id="logo_caixabanksign" fill-rule="nonzero">
            <polygon id="Shape" fill="#007EAE" points="72 71.859375 0 71.859375 0.028125 0 72 0"></polygon>
            <g id="Group" transform="translate(6.000000, 6.000000)" fill="#FFFFFF">
                <path d="M26.1652893,41.6694215 L19.3719008,34.8760331 C18.677686,34.1818182 18.677686,33.0578512 19.3719008,32.3636364 C20.0661157,31.6694215 21.1900826,31.6694215 21.8842975,32.3636364 L26.0661157,36.5454545 L40.7768595,20.6115702 C41.4380165,19.8842975 42.5619835,19.8512397 43.2892562,20.5123967 C44.0165289,21.1735537 44.0495868,22.2975207 43.3884298,23.0247934 L26.1652893,41.6694215 Z" id="Shape"></path>
                <path d="M29.9504132,3.57024793 C44.4958678,3.57024793 56.3305785,15.4049587 56.3305785,29.9504132 C56.3305785,44.4958678 44.4958678,56.3305785 29.9504132,56.3305785 C15.4049587,56.3305785 3.57024793,44.4793388 3.57024793,29.9338843 C3.57024793,15.3884298 15.4049587,3.57024793 29.9504132,3.57024793 L29.9504132,3.57024793 Z M29.9504132,0.0165289256 C13.4214876,0.0165289256 0.0330578512,13.4214876 0.0330578512,29.9338843 C0.0330578512,46.4628099 13.4380165,59.8512397 29.9504132,59.8512397 C46.4628099,59.8512397 59.8677686,46.446281 59.8677686,29.9338843 C59.8677686,13.4214876 46.4793388,0.0165289256 29.9504132,0.0165289256 L29.9504132,0.0165289256 Z" id="Shape"></path>
            </g>
        </g>
    </g>
</svg>